# Blender v2.93.4 OBJ File: ''
# www.blender.org
mtllib sidewalk.mtl
o pCube12_DRAIN_TEXTURE_0
v 1.419133 0.174532 0.868617
v 1.437174 0.193001 0.851014
v 1.437174 0.223320 -0.411706
v 1.419133 0.205718 -0.430175
v 1.437174 0.193001 0.851014
v 1.419133 0.174532 0.868617
v 5.353864 0.174532 0.868617
v 5.335823 0.193001 0.851014
v 5.335823 0.193001 0.851014
v 5.353864 0.174532 0.868617
v 5.353864 0.205718 -0.430175
v 5.335823 0.223320 -0.411706
v 1.419133 0.205718 -0.430175
v 1.437174 0.223320 -0.411706
v 5.335823 0.223320 -0.411706
v 5.353864 0.205718 -0.430175
v 1.419133 0.111537 0.867105
v 5.353864 0.111537 0.867105
v 5.353864 0.174532 0.868617
v 1.419133 0.174532 0.868617
v 1.437174 0.193001 0.851014
v 5.335823 0.193001 0.851014
v 5.335823 0.223320 -0.411706
v 1.437174 0.223320 -0.411706
v 1.419133 0.205718 -0.430175
v 5.353864 0.205718 -0.430175
v 5.353864 0.142722 -0.431688
v 1.419133 0.142722 -0.431688
v 5.353864 0.111537 0.867105
v 5.353864 0.142722 -0.431688
v 5.353864 0.205718 -0.430175
v 5.353864 0.174532 0.868617
v 1.419133 0.142722 -0.431688
v 1.419133 0.111537 0.867105
v 1.419133 0.174532 0.868617
v 1.419133 0.205718 -0.430175
v 1.392678 0.473078 -0.343210
v 5.364866 0.473078 -0.343210
v 5.364866 0.830564 -0.343210
v 1.392678 0.830564 -0.343210
v 1.392678 0.830564 -0.343210
v 5.364866 0.830564 -0.343210
v 5.364866 0.830564 -1.172865
v 1.392678 0.830564 -1.172865
v 1.491982 0.155589 -1.538979
v 5.265561 0.155589 -1.008620
v 5.265561 0.464937 -1.008620
v 1.491982 0.464937 -1.403758
v 5.364866 0.151912 -0.343878
v 5.265561 0.464937 -0.343210
v 5.265561 0.160050 -0.343682
v 1.491982 0.464937 -0.343210
v 1.392678 0.151912 -0.343878
v 1.491982 0.160050 -0.343682
v 5.265561 0.160050 -0.343682
v 5.265561 0.464937 -0.343210
v 5.265561 0.464937 -1.008620
v 5.265561 0.155589 -1.008620
v 5.265561 0.464937 -0.343210
v 1.491982 0.464937 -0.343210
v 1.491982 0.464937 -1.403758
v 5.265561 0.464937 -1.008620
v 1.491982 0.464937 -0.343210
v 1.491982 0.160050 -0.343682
v 1.491982 0.155589 -1.538979
v 1.491982 0.464937 -1.403758
v 1.392678 0.830564 -0.343210
v 1.392678 0.830564 -1.172865
v 1.392678 0.453619 -1.172865
v 1.392678 0.453619 -0.343210
v 5.364866 0.830564 -1.172865
v 5.364866 0.830564 -0.343210
v 5.364866 0.453619 -0.343210
v 5.364866 0.453619 -1.308086
v 1.392678 0.453619 -1.172865
v 1.392678 0.830564 -1.172865
v 5.364866 0.830564 -1.172865
v 5.364866 0.453619 -1.308086
vt 0.111489 0.659911
vt 0.116653 0.656397
vt 0.121168 0.403942
vt 0.116132 0.400245
vt 0.147126 0.697165
vt 0.143686 0.703794
vt 0.892362 0.705343
vt 0.888936 0.698700
vt 0.884649 0.668968
vt 0.890669 0.673067
vt 0.889218 0.373683
vt 0.883239 0.377899
vt 0.149543 0.374624
vt 0.152862 0.378868
vt 0.860749 0.373071
vt 0.863982 0.368774
vt 0.143667 0.720184
vt 0.892344 0.721733
vt 0.892362 0.705343
vt 0.143686 0.703794
vt 0.155846 0.670843
vt 0.863733 0.665046
vt 0.860749 0.373071
vt 0.152862 0.378868
vt 0.000000 0.791585
vt 0.000000 0.977089
vt 0.002971 0.977089
vt 0.002971 0.791585
vt 0.905486 0.672921
vt 0.904036 0.373537
vt 0.889218 0.373683
vt 0.890669 0.673067
vt 0.103538 0.400020
vt 0.098894 0.659686
vt 0.111489 0.659911
vt 0.116132 0.400245
vt 0.044712 0.323158
vt 0.969132 0.325750
vt 0.969865 0.261501
vt 0.045445 0.258910
vt 0.247560 0.238787
vt 0.807193 0.236789
vt 0.806589 0.031404
vt 0.246956 0.033402
vt 0.408054 0.830203
vt 0.407350 0.887503
vt 0.632082 0.889919
vt 0.632707 0.831780
vt 0.164218 0.968195
vt 0.873423 0.975820
vt 0.875839 0.751087
vt 0.166634 0.743463
vt 0.632082 0.889919
vt 0.632609 0.832618
vt 0.407975 0.829364
vt 0.407350 0.887503
vt 0.421473 0.883363
vt 0.618051 0.885476
vt 0.618584 0.835920
vt 0.422006 0.833806
vt 0.421473 0.883363
vt 0.618051 0.885476
vt 0.618584 0.835920
vt 0.422006 0.833806
vt 0.874943 0.834384
vt 0.165738 0.826760
vt 0.165113 0.884899
vt 0.874318 0.892523
vt 0.968472 0.383471
vt 0.946004 0.327148
vt 0.945379 0.381943
vt 0.067806 0.324686
vt 0.044053 0.380879
vt 0.067180 0.379482
vt 0.780873 0.887227
vt 0.781405 0.837670
vt 0.259184 0.832056
vt 0.258651 0.881613
vn -0.7071 0.7069 0.0170
vn 0.0000 0.6899 0.7239
vn 0.7071 0.7069 0.0170
vn 0.0000 0.7239 -0.6899
vn 0.0000 -0.0240 0.9997
vn 0.0000 0.9997 0.0240
vn 0.0000 0.0240 -0.9997
vn 1.0000 0.0000 0.0000
vn -1.0000 -0.0000 0.0000
vn 0.0000 0.0000 1.0000
vn 0.0000 1.0000 0.0000
vn 0.0000 -1.0000 0.0000
vn -0.1189 -0.2120 0.9700
vn -0.1190 -0.2120 0.9700
vn 0.0012 -0.0018 1.0000
vn 0.0002 -0.0007 1.0000
vn 0.0009 -0.0018 1.0000
vn -0.0000 -0.0005 1.0000
vn -0.0010 -0.0018 1.0000
vn -0.0168 0.1765 -0.9841
vn -0.0167 0.1765 -0.9842
vn -0.0168 0.1765 -0.9842
usemtl DRAIN_TEXTURE
s off
f 1/1/1 2/2/1 3/3/1
f 1/1/1 3/3/1 4/4/1
f 5/5/2 6/6/2 7/7/2
f 5/5/2 7/7/2 8/8/2
f 9/9/3 10/10/3 11/11/3
f 9/9/3 11/11/3 12/12/3
f 13/13/4 14/14/4 15/15/4
f 13/13/4 15/15/4 16/16/4
f 17/17/5 18/18/5 19/19/5
f 17/17/5 19/19/5 20/20/5
f 21/21/6 22/22/6 23/23/6
f 21/21/6 23/23/6 24/24/6
f 25/25/7 26/26/7 27/27/7
f 25/25/7 27/27/7 28/28/7
f 29/29/8 30/30/8 31/31/8
f 29/29/8 31/31/8 32/32/8
f 33/33/9 34/34/9 35/35/9
f 33/33/9 35/35/9 36/36/9
f 37/37/10 38/38/10 39/39/10
f 37/37/10 39/39/10 40/40/10
f 41/41/11 42/42/11 43/43/11
f 41/41/11 43/43/11 44/44/11
f 55/45/9 56/46/9 57/47/9
f 55/45/9 57/47/9 58/48/9
f 59/49/12 60/50/12 61/51/12
f 59/49/12 61/51/12 62/52/12
f 63/53/8 64/54/8 65/55/8
f 63/53/8 65/55/8 66/56/8
f 67/57/9 68/58/9 69/59/9
f 67/57/9 69/59/9 70/60/9
f 71/61/8 72/62/8 73/63/8
f 71/61/8 73/63/8 74/64/8
s 1
f 45/65/13 46/66/13 47/67/14
f 45/65/13 47/67/14 48/68/14
f 49/69/15 38/38/10 50/70/16
f 49/69/15 50/70/16 51/71/17
f 38/38/10 37/37/10 52/72/18
f 38/38/10 52/72/18 50/70/16
f 37/37/10 53/73/19 54/74/19
f 37/37/10 54/74/19 52/72/18
f 75/75/20 76/76/21 77/77/22
f 75/75/20 77/77/22 78/78/22
o pCube16_PLAIN_SIDEWALK_0
v -2.952001 0.779026 -1.117951
v -2.913555 0.817472 -1.156397
v -2.913555 0.817472 -6.952566
v -2.952001 0.779026 -6.977139
v -2.913555 0.817472 -1.156397
v -2.952001 0.779026 -1.117951
v 3.396604 0.779026 -1.117951
v 3.358159 0.817472 -1.156397
v 3.358159 0.817472 -1.156397
v 3.396604 0.779026 -1.117951
v 3.391540 0.779026 -6.977139
v 3.358159 0.817472 -6.952566
v -2.952001 0.779026 -6.977139
v -2.913555 0.817472 -6.952566
v 3.358159 0.817472 -6.952566
v 3.391540 0.779026 -6.977139
v -2.913555 0.817472 -1.156397
v 3.358159 0.817472 -1.156397
v 3.358159 0.817472 -6.952566
v -2.913555 0.817472 -6.952566
v 3.391540 0.779026 -6.977139
v 3.424922 0.817472 -7.001713
v 3.424922 0.817472 -12.797881
v 3.386477 0.779026 -12.836327
v 3.424922 0.817472 -7.001713
v 3.391540 0.779026 -6.977139
v 9.735082 0.779026 -6.977139
v 9.696637 0.817472 -7.001713
v 9.696637 0.817472 -7.001713
v 9.735082 0.779026 -6.977139
v 9.735082 0.779026 -12.836327
v 9.696637 0.817472 -12.797881
v 3.386477 0.779026 -12.836327
v 3.424922 0.817472 -12.797881
v 9.696637 0.817472 -12.797881
v 9.735082 0.779026 -12.836327
v 3.424922 0.817472 -7.001713
v 9.696637 0.817472 -7.001713
v 9.696637 0.817472 -12.797881
v 3.424922 0.817472 -12.797881
v -2.952001 0.779026 -6.977139
v -2.913555 0.817472 -7.001713
v -2.913555 0.817472 -12.797881
v -2.952001 0.779026 -12.836327
v -2.913555 0.817472 -7.001713
v -2.952001 0.779026 -6.977139
v 3.391540 0.779026 -6.977139
v 3.358159 0.817472 -7.001713
v 3.358159 0.817472 -7.001713
v 3.391540 0.779026 -6.977139
v 3.396604 0.779026 -12.836327
v 3.358159 0.817472 -12.797881
v -2.952001 0.779026 -12.836327
v -2.913555 0.817472 -12.797881
v 3.358159 0.817472 -12.797881
v 3.396604 0.779026 -12.836327
v -2.913555 0.817472 -7.001713
v 3.358159 0.817472 -7.001713
v 3.358159 0.817472 -12.797881
v -2.913555 0.817472 -12.797881
v 3.386477 0.779026 -1.117951
v 3.424922 0.817472 -1.156397
v 3.424922 0.817472 -6.952566
v 3.391540 0.779026 -6.977139
v 3.424922 0.817472 -1.156397
v 3.386477 0.779026 -1.117951
v 9.735082 0.779026 -1.117951
v 9.696637 0.817472 -1.156397
v 9.696637 0.817472 -1.156397
v 9.735082 0.779026 -1.117951
v 9.735082 0.779026 -6.977139
v 9.696637 0.817472 -6.952566
v 3.391540 0.779026 -6.977139
v 3.424922 0.817472 -6.952566
v 9.696637 0.817472 -6.952566
v 9.735082 0.779026 -6.977139
v 3.424922 0.817472 -1.156397
v 9.696637 0.817472 -1.156397
v 9.696637 0.817472 -6.952566
v 3.424922 0.817472 -6.952566
vt 0.015206 0.736179
vt 0.031996 0.722177
vt 0.031996 0.381187
vt 0.015206 0.379741
vt 0.031996 0.722177
vt 0.493184 0.736179
vt 0.476394 0.722177
vt 0.015206 0.379741
vt 0.031996 0.381187
vt 0.476394 0.381187
vt 0.492803 0.379741
vt 0.031996 0.722177
vt 0.476394 0.722177
vt 0.476394 0.381187
vt 0.031996 0.381187
vt 0.519781 0.378295
vt 0.505379 0.379741
vt 0.978960 0.379741
vt 0.964180 0.378295
vt 0.964180 0.378295
vt 0.978960 0.379741
vt 0.978960 0.023055
vt 0.964180 0.037305
vt 0.505001 0.023055
vt 0.519781 0.037305
vt 0.964180 0.037305
vt 0.519781 0.378295
vt 0.964180 0.378295
vt 0.964180 0.037305
vt 0.519781 0.037305
vt 0.015206 0.379741
vt 0.031996 0.378295
vt 0.031996 0.037305
vt 0.015206 0.023303
vt 0.031996 0.378295
vt 0.015206 0.379741
vt 0.492803 0.379741
vt 0.476394 0.378295
vt 0.015206 0.023303
vt 0.031996 0.037305
vt 0.476394 0.037305
vt 0.031996 0.378295
vt 0.476394 0.378295
vt 0.476394 0.037305
vt 0.031996 0.037305
vt 0.519781 0.722177
vt 0.978960 0.736427
vt 0.964180 0.722177
vt 0.964180 0.722177
vt 0.978960 0.736427
vt 0.978960 0.379741
vt 0.964180 0.381187
vt 0.505379 0.379741
vt 0.519781 0.381187
vt 0.964180 0.381187
vt 0.978960 0.379741
vt 0.519781 0.722177
vt 0.964180 0.722177
vt 0.964180 0.381187
vt 0.519781 0.381187
vt 0.015206 0.736179
vt 0.476394 0.722177
vt 0.493184 0.736179
vt 0.492803 0.379741
vt 0.476394 0.381187
vt 0.505379 0.379741
vt 0.519781 0.378295
vt 0.519781 0.037305
vt 0.505001 0.023055
vt 0.978960 0.023055
vt 0.476394 0.378295
vt 0.492803 0.379741
vt 0.493184 0.023303
vt 0.476394 0.037305
vt 0.493184 0.023303
vt 0.505001 0.736427
vt 0.519781 0.722177
vt 0.519781 0.381187
vt 0.505379 0.379741
vt 0.505001 0.736427
vn -0.7071 0.7071 0.0000
vn 0.0000 0.7071 0.7071
vn 0.0000 0.5386 -0.8426
vn 0.0000 1.0000 0.0000
vn 0.0000 0.5386 0.8426
vn 0.7071 0.7071 0.0000
vn 0.0000 0.7071 -0.7071
vn 0.7308 0.6826 -0.0003
vn -0.7308 0.6826 0.0003
vn 0.7308 0.6826 0.0003
vn -0.7308 0.6826 -0.0003
usemtl PLAIN_SIDEWALK
s off
f 79/79/23 80/80/23 81/81/23
f 79/79/23 81/81/23 82/82/23
f 83/83/24 85/84/24 86/85/24
f 91/86/25 92/87/25 93/88/25
f 91/86/25 93/88/25 94/89/25
f 95/90/26 96/91/26 97/92/26
f 95/90/26 97/92/26 98/93/26
f 103/94/27 104/95/27 105/96/27
f 103/94/27 105/96/27 106/97/27
f 107/98/28 108/99/28 109/100/28
f 107/98/28 109/100/28 110/101/28
f 111/102/29 112/103/29 113/104/29
f 115/105/26 116/106/26 117/107/26
f 115/105/26 117/107/26 118/108/26
f 119/109/23 120/110/23 121/111/23
f 119/109/23 121/111/23 122/112/23
f 123/113/27 124/114/27 125/115/27
f 123/113/27 125/115/27 126/116/27
f 131/117/29 132/118/29 133/119/29
f 135/120/26 136/121/26 137/122/26
f 135/120/26 137/122/26 138/123/26
f 143/124/24 145/125/24 146/126/24
f 147/127/28 148/128/28 149/129/28
f 147/127/28 149/129/28 150/130/28
f 151/131/25 152/132/25 153/133/25
f 151/131/25 153/133/25 154/134/25
f 155/135/26 156/136/26 157/137/26
f 155/135/26 157/137/26 158/138/26
s 1
f 83/83/24 84/139/24 85/84/24
f 87/140/30 88/141/30 89/142/30
f 87/140/30 89/142/30 90/143/30
f 99/144/31 100/145/31 101/146/31
f 99/144/31 101/146/31 102/147/31
f 111/102/29 113/104/29 114/148/29
f 127/149/32 128/150/32 129/151/32
f 127/149/32 129/151/32 130/152/32
f 131/117/29 133/119/29 134/153/29
f 139/154/33 140/155/33 141/156/33
f 139/154/33 141/156/33 142/157/33
f 143/124/24 144/158/24 145/125/24
o pCube17_PLAIN_SIDEWALK_0
v 5.310410 0.774755 -0.358811
v 5.310410 0.207476 -0.358811
v 9.739819 0.207476 -0.358810
v 9.739819 0.774755 -0.358810
v 5.310410 0.818698 -1.092298
v 5.310410 0.818698 -0.402753
v 9.739819 0.818698 -0.402753
v 9.739819 0.818698 -1.092298
v 5.310410 0.163128 0.856620
v 5.310410 0.142302 0.856620
v 9.739819 0.142302 0.856620
v 9.739819 0.163128 0.856620
v 9.739819 0.207476 -0.358810
v 5.310410 0.207476 -0.358811
v 5.310410 0.186308 0.811944
v 9.739819 0.186308 0.811944
v 9.739819 0.163128 0.856620
v 9.739819 0.186308 0.811944
v 5.310410 0.186308 0.811944
v 5.310410 0.163128 0.856620
v 5.310410 0.818698 -0.402753
v 5.310410 0.774755 -0.358811
v 9.739819 0.774755 -0.358810
v 9.739819 0.818698 -0.402753
v 5.310410 0.788947 -1.122049
v 5.310410 0.818698 -1.092298
v 9.739819 0.818698 -1.092298
v 9.739819 0.788947 -1.122049
v -2.943500 0.788947 -1.122049
v -2.943500 0.818698 -1.092298
v 1.463131 0.818698 -1.092298
v 1.463131 0.788947 -1.122049
v -2.943500 0.818698 -0.402753
v 1.463131 0.818698 -0.402753
v 1.463131 0.818698 -1.092298
v -2.943500 0.818698 -1.092298
v -2.943500 0.818698 -0.402753
v -2.943500 0.774755 -0.358810
v 1.463131 0.774755 -0.358811
v 1.463131 0.818698 -0.402753
v -2.943500 0.207476 -0.358810
v 1.463131 0.207476 -0.358811
v 1.463131 0.774755 -0.358811
v -2.943500 0.774755 -0.358810
v 1.463131 0.186308 0.811944
v 1.463131 0.207476 -0.358811
v -2.943500 0.207476 -0.358810
v -2.943500 0.186308 0.811944
v 1.463131 0.163128 0.856620
v 1.463131 0.186308 0.811944
v -2.943500 0.186308 0.811944
v -2.943500 0.163128 0.856620
v -2.943500 0.142302 0.856620
v 1.463131 0.142302 0.856620
v 1.463131 0.163128 0.856620
v -2.943500 0.163128 0.856620
vt 0.638986 0.843255
vt 0.640979 0.902172
vt 0.965587 0.902042
vt 0.963594 0.843125
vt 0.357073 0.830954
vt 0.356970 0.778206
vt 0.024566 0.778807
vt 0.024669 0.831554
vt 0.356006 0.967810
vt 0.355951 0.956238
vt 0.020949 0.956486
vt 0.021004 0.968059
vt 0.032393 0.946890
vt 0.359601 0.946642
vt 0.359429 0.909641
vt 0.032222 0.909889
vt 0.021004 0.968059
vt 0.021065 0.980940
vt 0.356067 0.980692
vt 0.356006 0.967810
vt 0.638831 0.838691
vt 0.638986 0.843255
vt 0.963594 0.843125
vt 0.963440 0.838561
vt 0.357434 0.765612
vt 0.357356 0.749079
vt 0.024953 0.749327
vt 0.025030 0.765860
vt 0.976845 0.765149
vt 0.976767 0.748617
vt 0.646073 0.748864
vt 0.646151 0.765396
vt 0.976382 0.777086
vt 0.645688 0.777684
vt 0.645791 0.830432
vt 0.976485 0.829834
vt 0.033945 0.838934
vt 0.034099 0.843498
vt 0.357038 0.843368
vt 0.356884 0.838804
vt 0.036093 0.902415
vt 0.359032 0.902285
vt 0.357038 0.843368
vt 0.034099 0.843498
vt 0.643634 0.909425
vt 0.643805 0.946426
vt 0.969330 0.946179
vt 0.969159 0.909178
vt 0.646980 0.967595
vt 0.647041 0.980476
vt 0.980321 0.980229
vt 0.980260 0.967348
vt 0.980205 0.955775
vt 0.646925 0.956022
vt 0.646980 0.967595
vt 0.980260 0.967348
vn -0.0000 0.0000 1.0000
vn 0.0000 1.0000 0.0000
vn 0.0000 0.9998 0.0181
vn 0.0000 0.8876 0.4606
vn -0.0000 0.7071 0.7071
vn 0.0000 0.7071 -0.7071
usemtl PLAIN_SIDEWALK
s off
f 159/159/34 160/160/34 161/161/34
f 159/159/34 161/161/34 162/162/34
f 163/163/35 164/164/35 165/165/35
f 163/163/35 165/165/35 166/166/35
f 167/167/34 168/168/34 169/169/34
f 167/167/34 169/169/34 170/170/34
f 171/171/36 172/172/36 173/173/36
f 171/171/36 173/173/36 174/174/36
f 175/175/37 176/176/37 177/177/37
f 175/175/37 177/177/37 178/178/37
f 179/179/38 180/180/38 181/181/38
f 179/179/38 181/181/38 182/182/38
f 183/183/39 184/184/39 185/185/39
f 183/183/39 185/185/39 186/186/39
f 187/187/39 188/188/39 189/189/39
f 187/187/39 189/189/39 190/190/39
f 191/191/35 192/192/35 193/193/35
f 191/191/35 193/193/35 194/194/35
f 195/195/38 196/196/38 197/197/38
f 195/195/38 197/197/38 198/198/38
f 199/199/34 200/200/34 201/201/34
f 199/199/34 201/201/34 202/202/34
f 203/203/36 204/204/36 205/205/36
f 203/203/36 205/205/36 206/206/36
f 207/207/37 208/208/37 209/209/37
f 207/207/37 209/209/37 210/210/37
f 211/211/34 212/212/34 213/213/34
f 211/211/34 213/213/34 214/214/34
o pCube2_PLAIN_SIDEWALK_0
v 9.707899 0.207476 -0.358810
v 22.391218 0.207476 -0.358810
v 22.391218 0.774755 -0.358810
v 9.707899 0.774755 -0.358810
v 9.707899 0.818698 -0.402753
v 22.391218 0.818698 -0.402753
v 22.391218 0.818698 -1.092298
v 9.707899 0.818698 -1.092298
v 9.707899 0.142302 0.856620
v 22.391218 0.142302 0.856620
v 22.391218 0.163128 0.856620
v 9.707899 0.163128 0.856620
v 22.391218 0.207476 -0.358810
v 9.707899 0.207476 -0.358810
v 9.707899 0.186308 0.811944
v 22.391218 0.186308 0.811944
v 22.391218 0.163128 0.856620
v 22.391218 0.186308 0.811944
v 9.707899 0.186308 0.811944
v 9.707899 0.163128 0.856620
v 9.707899 0.818698 -0.402753
v 9.707899 0.774755 -0.358810
v 22.391218 0.774755 -0.358810
v 22.391218 0.818698 -0.402753
v 9.707899 0.788947 -1.122049
v 9.707899 0.818698 -1.092298
v 22.391218 0.818698 -1.092298
v 22.391218 0.788947 -1.122049
vt 0.036093 0.902415
vt 0.965587 0.902042
vt 0.963594 0.843125
vt 0.034099 0.843498
vt 0.976382 0.777086
vt 0.024566 0.778807
vt 0.024669 0.831554
vt 0.976485 0.829834
vt 0.980205 0.955775
vt 0.020949 0.956486
vt 0.021004 0.968059
vt 0.980260 0.967348
vt 0.032393 0.946890
vt 0.969330 0.946179
vt 0.969159 0.909178
vt 0.032222 0.909889
vt 0.021004 0.968059
vt 0.021065 0.980940
vt 0.980321 0.980229
vt 0.980260 0.967348
vt 0.033945 0.838934
vt 0.034099 0.843498
vt 0.963594 0.843125
vt 0.963440 0.838561
vt 0.976845 0.765149
vt 0.976767 0.748617
vt 0.024953 0.749327
vt 0.025030 0.765860
vn 0.0000 0.0000 1.0000
vn 0.0000 1.0000 0.0000
vn 0.0000 0.9998 0.0181
vn 0.0000 0.8876 0.4606
vn 0.0000 0.7071 0.7071
vn 0.0000 0.7071 -0.7071
usemtl PLAIN_SIDEWALK
s off
f 215/215/40 216/216/40 217/217/40
f 215/215/40 217/217/40 218/218/40
f 219/219/41 220/220/41 221/221/41
f 219/219/41 221/221/41 222/222/41
f 223/223/40 224/224/40 225/225/40
f 223/223/40 225/225/40 226/226/40
f 227/227/42 228/228/42 229/229/42
f 227/227/42 229/229/42 230/230/42
f 231/231/43 232/232/43 233/233/43
f 231/231/43 233/233/43 234/234/43
f 235/235/44 236/236/44 237/237/44
f 235/235/44 237/237/44 238/238/44
f 239/239/45 240/240/45 241/241/45
f 239/239/45 241/241/45 242/242/45
o pCube7_PLAIN_SIDEWALK_0
v 9.703957 0.779026 -1.117951
v 9.742402 0.817472 -1.156397
v 9.742402 0.817472 -6.952566
v 9.703957 0.779026 -6.977139
v 9.742402 0.817472 -1.156397
v 9.703957 0.779026 -1.117951
v 16.052561 0.779026 -1.117951
v 16.014116 0.817472 -1.156397
v 16.014116 0.817472 -1.156397
v 16.052561 0.779026 -1.117951
v 16.047497 0.779026 -6.977139
v 16.014116 0.817472 -6.952566
v 9.703957 0.779026 -6.977139
v 9.742402 0.817472 -6.952566
v 16.014116 0.817472 -6.952566
v 16.047497 0.779026 -6.977139
v 9.742402 0.817472 -1.156397
v 16.014116 0.817472 -1.156397
v 16.014116 0.817472 -6.952566
v 9.742402 0.817472 -6.952566
v 16.047497 0.779026 -6.977139
v 16.080879 0.817472 -7.001713
v 16.080879 0.817472 -12.797881
v 16.042435 0.779026 -12.836327
v 16.080879 0.817472 -7.001713
v 16.047497 0.779026 -6.977139
v 22.391039 0.779026 -6.977139
v 22.352594 0.817472 -7.001713
v 22.352594 0.817472 -7.001713
v 22.391039 0.779026 -6.977139
v 22.391039 0.779026 -12.836327
v 22.352594 0.817472 -12.797881
v 16.042435 0.779026 -12.836327
v 16.080879 0.817472 -12.797881
v 22.352594 0.817472 -12.797881
v 22.391039 0.779026 -12.836327
v 16.080879 0.817472 -7.001713
v 22.352594 0.817472 -7.001713
v 22.352594 0.817472 -12.797881
v 16.080879 0.817472 -12.797881
v 9.703957 0.779026 -6.977139
v 9.742402 0.817472 -7.001713
v 9.742402 0.817472 -12.797881
v 9.703957 0.779026 -12.836327
v 9.742402 0.817472 -7.001713
v 9.703957 0.779026 -6.977139
v 16.047497 0.779026 -6.977139
v 16.014116 0.817472 -7.001713
v 16.014116 0.817472 -7.001713
v 16.047497 0.779026 -6.977139
v 16.052561 0.779026 -12.836327
v 16.014116 0.817472 -12.797881
v 9.703957 0.779026 -12.836327
v 9.742402 0.817472 -12.797881
v 16.014116 0.817472 -12.797881
v 16.052561 0.779026 -12.836327
v 9.742402 0.817472 -7.001713
v 16.014116 0.817472 -7.001713
v 16.014116 0.817472 -12.797881
v 9.742402 0.817472 -12.797881
v 16.042435 0.779026 -1.117951
v 16.080879 0.817472 -1.156397
v 16.080879 0.817472 -6.952566
v 16.047497 0.779026 -6.977139
v 16.080879 0.817472 -1.156397
v 16.042435 0.779026 -1.117951
v 22.391039 0.779026 -1.117951
v 22.352594 0.817472 -1.156397
v 22.352594 0.817472 -1.156397
v 22.391039 0.779026 -1.117951
v 22.391039 0.779026 -6.977139
v 22.352594 0.817472 -6.952566
v 16.047497 0.779026 -6.977139
v 16.080879 0.817472 -6.952566
v 22.352594 0.817472 -6.952566
v 22.391039 0.779026 -6.977139
v 16.080879 0.817472 -1.156397
v 22.352594 0.817472 -1.156397
v 22.352594 0.817472 -6.952566
v 16.080879 0.817472 -6.952566
vt 0.015206 0.736179
vt 0.031996 0.722177
vt 0.031996 0.381187
vt 0.015206 0.379741
vt 0.031996 0.722177
vt 0.493184 0.736179
vt 0.476394 0.722177
vt 0.015206 0.379741
vt 0.031996 0.381187
vt 0.476394 0.381187
vt 0.492803 0.379741
vt 0.031996 0.722177
vt 0.476394 0.722177
vt 0.476394 0.381187
vt 0.031996 0.381187
vt 0.519781 0.378295
vt 0.505379 0.379741
vt 0.978960 0.379741
vt 0.964180 0.378295
vt 0.964180 0.378295
vt 0.978960 0.379741
vt 0.978960 0.023055
vt 0.964180 0.037305
vt 0.505001 0.023055
vt 0.519781 0.037305
vt 0.964180 0.037305
vt 0.519781 0.378295
vt 0.964180 0.378295
vt 0.964180 0.037305
vt 0.519781 0.037305
vt 0.015206 0.379741
vt 0.031996 0.378295
vt 0.031996 0.037305
vt 0.015206 0.023303
vt 0.031996 0.378295
vt 0.015206 0.379741
vt 0.492803 0.379741
vt 0.476394 0.378295
vt 0.015206 0.023303
vt 0.031996 0.037305
vt 0.476394 0.037305
vt 0.031996 0.378295
vt 0.476394 0.378295
vt 0.476394 0.037305
vt 0.031996 0.037305
vt 0.519781 0.722177
vt 0.978960 0.736427
vt 0.964180 0.722177
vt 0.964180 0.722177
vt 0.978960 0.736427
vt 0.978960 0.379741
vt 0.964180 0.381187
vt 0.505379 0.379741
vt 0.519781 0.381187
vt 0.964180 0.381187
vt 0.978960 0.379741
vt 0.519781 0.722177
vt 0.964180 0.722177
vt 0.964180 0.381187
vt 0.519781 0.381187
vt 0.015206 0.736179
vt 0.476394 0.722177
vt 0.493184 0.736179
vt 0.492803 0.379741
vt 0.476394 0.381187
vt 0.505379 0.379741
vt 0.519781 0.378295
vt 0.519781 0.037305
vt 0.505001 0.023055
vt 0.978960 0.023055
vt 0.476394 0.378295
vt 0.492803 0.379741
vt 0.493184 0.023303
vt 0.476394 0.037305
vt 0.493184 0.023303
vt 0.505001 0.736427
vt 0.519781 0.722177
vt 0.519781 0.381187
vt 0.505379 0.379741
vt 0.505001 0.736427
vn -0.7071 0.7071 0.0000
vn 0.0000 0.7071 0.7071
vn 0.0000 0.5386 -0.8426
vn 0.0000 1.0000 0.0000
vn 0.0000 0.5386 0.8426
vn 0.7071 0.7071 0.0000
vn 0.0000 0.7071 -0.7071
vn 0.7072 0.7071 0.0000
vn 0.7308 0.6826 -0.0003
vn -0.7308 0.6826 0.0003
vn 0.7308 0.6826 0.0003
vn -0.7308 0.6826 -0.0003
usemtl PLAIN_SIDEWALK
s off
f 243/243/46 244/244/46 245/245/46
f 243/243/46 245/245/46 246/246/46
f 247/247/47 249/248/47 250/249/47
f 255/250/48 256/251/48 257/252/48
f 255/250/48 257/252/48 258/253/48
f 259/254/49 260/255/49 261/256/49
f 259/254/49 261/256/49 262/257/49
f 267/258/50 268/259/50 269/260/50
f 267/258/50 269/260/50 270/261/50
f 271/262/51 272/263/51 273/264/51
f 271/262/51 273/264/51 274/265/51
f 275/266/52 276/267/52 277/268/52
f 279/269/49 280/270/49 281/271/49
f 279/269/49 281/271/49 282/272/49
f 283/273/46 284/274/46 285/275/46
f 283/273/46 285/275/46 286/276/46
f 287/277/50 288/278/50 289/279/50
f 287/277/50 289/279/50 290/280/50
f 295/281/52 296/282/52 297/283/52
f 299/284/49 300/285/49 301/286/49
f 299/284/49 301/286/49 302/287/49
f 307/288/47 309/289/47 310/290/47
f 311/291/51 312/292/51 313/293/51
f 311/291/53 313/293/53 314/294/53
f 315/295/48 316/296/48 317/297/48
f 315/295/48 317/297/48 318/298/48
f 319/299/49 320/300/49 321/301/49
f 319/299/49 321/301/49 322/302/49
s 1
f 247/247/47 248/303/47 249/248/47
f 251/304/54 252/305/54 253/306/54
f 251/304/54 253/306/54 254/307/54
f 263/308/55 264/309/55 265/310/55
f 263/308/55 265/310/55 266/311/55
f 275/266/52 277/268/52 278/312/52
f 291/313/56 292/314/56 293/315/56
f 291/313/56 293/315/56 294/316/56
f 295/281/52 297/283/52 298/317/52
f 303/318/57 304/319/57 305/320/57
f 303/318/57 305/320/57 306/321/57
f 307/288/47 308/322/47 309/289/47
